PathFileType	4	(X/Y/Z)	/Users/itak/Documents/Research/Walk-IL/dataset/trc/00031_00004.trc
DataRate	CameraRate	NumFrames	NumMarkers	Units	OrigDataRate	OrigDataStartFrame	OrigNumFrames
100.000000	100.000000	4	53	mm	100.000000	191	764
Frame#	Time	RPSI			LPSI			L3			STRN			T10			C7			CLAV			RBAK			LBAK			LSHO			LUPA			LAEL			LAOL			LWTS			LWPS			LFRA			LIFD			LHPS			LHTS			RSHO			RUPA			RAEL			RAOL			RWTS			RWPS			RFRA			RIFD			RHTS			RHPS			RBHD			LFHD			RFHD			LBHD			LHIP			RHIP			RASI			LASI			LKNE			LTHI			LANK			LTIP			LTOE			LMT1			LMT5			LHEE			RKNE			RTHI			RANK			RTIP			RTOE			RMT1			RMT5			RHEE			
		X1	Y1	Z1	X2	Y2	Z2	X3	Y3	Z3	X4	Y4	Z4	X5	Y5	Z5	X6	Y6	Z6	X7	Y7	Z7	X8	Y8	Z8	X9	Y9	Z9	X10	Y10	Z10	X11	Y11	Z11	X12	Y12	Z12	X13	Y13	Z13	X14	Y14	Z14	X15	Y15	Z15	X16	Y16	Z16	X17	Y17	Z17	X18	Y18	Z18	X19	Y19	Z19	X20	Y20	Z20	X21	Y21	Z21	X22	Y22	Z22	X23	Y23	Z23	X24	Y24	Z24	X25	Y25	Z25	X26	Y26	Z26	X27	Y27	Z27	X28	Y28	Z28	X29	Y29	Z29	X30	Y30	Z30	X31	Y31	Z31	X32	Y32	Z32	X33	Y33	Z33	X34	Y34	Z34	X35	Y35	Z35	X36	Y36	Z36	X37	Y37	Z37	X38	Y38	Z38	X39	Y39	Z39	X40	Y40	Z40	X41	Y41	Z41	X42	Y42	Z42	X43	Y43	Z43	X44	Y44	Z44	X45	Y45	Z45	X46	Y46	Z46	X47	Y47	Z47	X48	Y48	Z48	X49	Y49	Z49	X50	Y50	Z50	X51	Y51	Z51	X52	Y52	Z52	X53	Y53	Z53	

192	1.91	-266.7680358886719	1035.035766601562	600.7598876953125	-414.7173461914062	1035.266845703125	672.1580200195312	-341.1985778808594	1097.9658203125	644.1829833984375	-426.8905334472656	1281.234497070312	428.8487243652344	-322.7196960449219	1243.93359375	658.3303833007812	-342.0838623046875	1509.384887695312	599.0513916015625	-407.8862609863281	1408.667236328125	461.0748291015625	-251.5642395019531	1370.52783203125	624.64013671875	-423.153076171875	1476.547485351562	660.3138427734375	-532.54248046875	1480.6640625	599.6417846679688	-589.9517822265625	1369.365600585938	680.25732421875	-620.3901977539062	1161.396118164062	734.0928344726562	-515.7390747070312	1150.27001953125	745.612060546875	-612.7867431640625	893.8242797851562	675.9515380859375	-622.2205200195312	895.3905639648438	764.7511596679688	-634.7703857421875	1045.874633789062	746.0393676757812	-607.672119140625	705.4632568359375	678.392822265625	-635.8428955078125	801.2919311523438	749.641357421875	-633.2664184570312	798.8125610351562	678.6864013671875	-216.8670959472656	1477.60205078125	458.8466491699219	-148.2602233886719	1406.75	448.8678588867188	-107.0243453979492	1141.671264648438	498.1329956054688	-194.1485900878906	1119.491821289062	541.1846313476562	-219.8009948730469	898.2001342773438	383.26025390625	-136.2235870361328	869.3631591796875	409.2949523925781	-104.1622161865234	1062.423217773438	479.1724243164062	-276.8463745117188	722.5635375976562	363.8518676757812	-241.7395782470703	794.7804565429688	341.5702819824219	-174.5771179199219	774.1494750976562	368.5897827148438	-434.8304138183594	1692.471801757812	521.3982543945312	-303.0971069335938	1666.442016601562	349.0187683105469	-400.6599731445312	1677.735107421875	343.2261657714844	-292.5329284667969	1673.254760742188	523.7024536132812	-564.6062622070312	938.8094482421875	628.051025390625	-229.3258819580078	913.3421020507812	461.2912902832031	-337.210693359375	948.0556030273438	394.993408203125	-546.6632690429688	985.1710205078125	498.4838562011719	-633.7083740234375	547.2546997070312	416.0745239257812	-635.7354736328125	657.8726806640625	511.2149047851562	-734.2119140625	66.13182067871094	352.4132995605469	-692.8994750976562	309.1461486816406	417.962158203125	-704.8057250976562	129.1439819335938	139.4104461669922	-678.01123046875	114.4492034912109	192.2724304199219	-772.9684448242188	104.294548034668	240.3310089111328	-675.2662353515625	45.01284790039062	409.8274841308594	-307.9666442871094	488.7458801269531	561.4110107421875	-257.5023803710938	744.6475219726562	472.4482421875	-266.9160461425781	59.02706527709961	814.7936401367188	-302.7917175292969	371.1527404785156	619.5032348632812	-463.6265563964844	41.66486358642578	686.8492431640625	-435.8215026855469	52.6693000793457	747.6068115234375	-355.4518432617188	42.39690780639648	694.0139770507812	-260.2742004394531	75.09564971923828	883.7765502929688	
193	1.92	-272.6683959960938	1033.737670898438	594.1775512695312	-421.8907470703125	1033.719482421875	663.0269775390625	-347.7307739257812	1096.541381835938	636.44873046875	-429.9890441894531	1279.90673828125	419.8228149414062	-329.1902770996094	1242.51123046875	650.80712890625	-347.577880859375	1507.9677734375	591.2054443359375	-411.3402099609375	1407.319213867188	452.4040222167969	-257.3531494140625	1369.103759765625	618.2161254882812	-429.2361755371094	1475.130981445312	651.4736938476562	-538.1342163085938	1479.294067382812	589.0560302734375	-596.4019775390625	1368.167846679688	669.273681640625	-627.4215698242188	1160.397094726562	723.4150390625	-522.91357421875	1149.213500976562	736.0346069335938	-619.1724853515625	892.6367797851562	666.1046142578125	-629.57763671875	894.4609375	754.7905883789062	-641.9449462890625	1044.894897460938	735.5062255859375	-614.0997924804688	704.29638671875	669.0453491210938	-642.9979248046875	800.3148803710938	739.8197631835938	-639.6423950195312	797.6187133789062	668.8798828125	-220.2797546386719	1476.096923828125	452.8955383300781	-151.5567779541016	1405.2783203125	443.9170227050781	-110.6218490600586	1140.372192382812	493.8939514160156	-198.2035827636719	1118.188720703125	535.8689575195312	-221.3667144775391	896.5445556640625	377.8928833007812	-138.0221099853516	867.92724609375	404.9861755371094	-107.339225769043	1061.1240234375	475.0693969726562	-277.7574157714844	720.766845703125	358.0907592773438	-242.5866394042969	793.0241088867188	336.0627746582031	-175.786376953125	772.5623168945312	363.9483642578125	-439.1925354003906	1690.972778320312	512.25634765625	-305.2838134765625	1664.966674804688	341.5705261230469	-402.7931213378906	1676.156860351562	334.5404968261719	-296.96484375	1671.898193359375	516.3750610351562	-571.03515625	937.2975463867188	616.1053466796875	-232.9835357666016	912.5068359375	455.1907653808594	-339.6392822265625	946.8329467773438	386.9563293457031	-550.8447875976562	984.05615234375	487.0556945800781	-635.576904296875	546.2821044921875	402.5693664550781	-639.840576171875	656.5706176757812	497.6864624023438	-737.38134765625	66.03733825683594	331.17822265625	-696.2916259765625	308.6701965332031	400.7372436523438	-699.0038452148438	132.2989959716797	120.168212890625	-674.4395751953125	116.8148193359375	173.9955596923828	-771.4100952148438	105.9282760620117	217.8619232177734	-680.7265625	43.8682975769043	390.7126159667969	-310.243408203125	487.9016723632812	555.38671875	-260.1126098632812	743.8408203125	466.1267700195312	-267.0137023925781	60.98096084594727	814.2171630859375	-304.6814575195312	370.50634765625	614.6115112304688	-463.6923217773438	41.63999938964844	686.7529907226562	-435.9952392578125	53.20827484130859	747.1945190429688	-355.5429077148438	42.40345001220703	693.6216430664062	-260.5914916992188	78.08180999755859	882.9967651367188	
194	1.93	-278.658935546875	1032.465942382812	587.3038330078125	-429.0541381835938	1032.244384765625	653.6339111328125	-354.3002319335938	1095.12646484375	628.4157104492188	-433.0990905761719	1278.671752929688	410.6657409667969	-335.7001953125	1241.095703125	643.0907592773438	-353.1031494140625	1506.580200195312	583.2766723632812	-414.8013610839844	1406.054931640625	443.6341247558594	-263.2113037109375	1367.680541992188	611.6567993164062	-435.3017272949219	1473.738525390625	642.537841796875	-543.6983032226562	1477.9931640625	578.3713989257812	-602.829833984375	1367.03564453125	658.1705932617188	-634.4526977539062	1159.463134765625	712.6183471679688	-530.0866088867188	1148.215942382812	726.3117065429688	-625.5977172851562	891.5208129882812	656.1162109375	-636.9674072265625	893.5955810546875	744.6764526367188	-649.1275024414062	1043.980834960938	724.845947265625	-620.5389404296875	703.19970703125	659.5609130859375	-650.1904296875	799.3992309570312	729.8363037109375	-646.0471801757812	796.497314453125	658.9285888671875	-223.7236633300781	1474.656616210938	446.8965759277344	-154.9010467529297	1403.868530273438	438.9122619628906	-114.3104019165039	1139.140502929688	489.5687561035156	-202.3729858398438	1116.944091796875	530.3961181640625	-222.9014739990234	894.8901977539062	372.4732055664062	-139.8014221191406	866.5291748046875	400.6943054199219	-110.5948257446289	1059.890869140625	470.9030456542969	-278.5269470214844	718.9429931640625	352.3155517578125	-243.3320465087891	791.2470092773438	330.5311889648438	-176.8909301757812	770.9918823242188	359.3296508789062	-443.5117492675781	1689.560668945312	503.0572814941406	-307.4480590820312	1663.5576171875	334.0925903320312	-404.8834838867188	1674.650146484375	325.8200073242188	-301.3944702148438	1670.60986328125	508.9895629882812	-577.4160766601562	935.9072265625	603.9197387695312	-236.7186431884766	911.6273193359375	448.8901062011719	-342.1210021972656	945.648193359375	378.7093200683594	-554.9699096679688	983.0360717773438	475.4400939941406	-637.1907348632812	545.37451171875	388.6799926757812	-643.6905517578125	655.4833984375	483.5731506347656	-739.6121826171875	65.43634796142578	312.2421569824219	-699.1124267578125	308.0196838378906	384.2566833496094	-692.4281005859375	133.5533752441406	103.280517578125	-670.1425170898438	117.6006774902344	158.0421905517578	-768.946533203125	106.280876159668	197.7087097167969	-685.2398681640625	42.7052116394043	373.8572998046875	-312.7092895507812	486.9882202148438	548.994384765625	-262.866943359375	742.9996337890625	459.5208435058594	-267.12744140625	63.1317138671875	813.55029296875	-306.7179870605469	369.8170776367188	609.4036254882812	-463.761474609375	41.62559127807617	686.6411743164062	-436.1864013671875	53.79621887207031	746.7418212890625	-355.6714782714844	42.41926193237305	693.1917724609375	-260.9542541503906	81.36099243164062	882.0942993164062	
195	1.94	-284.7271118164062	1031.230712890625	580.119140625	-436.2051696777344	1030.851806640625	643.970703125	-360.9025268554688	1093.729614257812	620.0672607421875	-436.2192077636719	1277.541137695312	401.3716735839844	-342.2502136230469	1239.695068359375	635.1768798828125	-358.659423828125	1505.234497070312	575.2683715820312	-418.2741394042969	1404.883544921875	434.7587585449219	-269.1446533203125	1366.267456054688	604.959716796875	-441.3695373535156	1472.381591796875	633.4956665039062	-549.2183227539062	1476.773315429688	567.59716796875	-609.2410278320312	1365.971435546875	646.9364624023438	-641.4903564453125	1158.596313476562	701.6828002929688	-537.265625	1147.279052734375	716.4291381835938	-632.068115234375	890.4791259765625	645.968505859375	-644.394287109375	892.7979125976562	734.3931884765625	-656.3247680664062	1043.134521484375	714.0390625	-627.0036010742188	702.1759033203125	649.9244995117188	-657.4296264648438	798.5488891601562	719.673828125	-652.4899291992188	795.452880859375	648.8155517578125	-227.2025909423828	1473.292236328125	440.8502502441406	-158.2939147949219	1402.531494140625	433.8572998046875	-118.0867691040039	1137.9873046875	485.1655883789062	-206.6584930419922	1115.763916015625	524.7589111328125	-224.4006652832031	893.2511596679688	367.007568359375	-141.5637512207031	865.1822509765625	396.4318542480469	-113.927978515625	1058.735229492188	466.6822204589844	-279.1589965820312	717.1093139648438	346.5195617675781	-243.9676361083984	789.4664916992188	324.9804992675781	-177.8902587890625	769.453369140625	354.7459411621094	-447.7953796386719	1688.25244140625	493.7991027832031	-309.5742492675781	1662.230102539062	326.5971984863281	-406.9132385253906	1673.235107421875	317.0695190429688	-305.8238525390625	1669.39892578125	501.5599670410156	-583.7418823242188	934.6539916992188	591.4907836914062	-240.5363159179688	910.7005004882812	442.3676147460938	-344.6672668457031	944.5079345703125	370.2392272949219	-559.0528564453125	982.119873046875	463.6255187988281	-638.5809936523438	544.5508422851562	374.4369506835938	-647.2672119140625	654.6251831054688	468.9137878417969	-740.9852294921875	64.29964447021484	295.6639099121094	-701.3751831054688	307.1712646484375	368.5404663085938	-685.2431030273438	132.7691192626953	88.743408203125	-665.2623901367188	116.7023391723633	144.3987121582031	-765.7033081054688	105.2475433349609	179.9230194091797	-688.8671875	41.55715560913086	359.3139038085938	-315.3716735839844	485.9981994628906	542.1988525390625	-265.7769775390625	742.1239013671875	452.6166687011719	-267.2790832519531	65.49422454833984	812.7783203125	-308.9046325683594	369.0823669433594	603.8516235351562	-463.8335876464844	41.62135314941406	686.5125122070312	-436.39892578125	54.43767166137695	746.2379150390625	-355.8455505371094	42.4354362487793	692.7236938476562	-261.3801574707031	84.96794891357422	881.0441284179688	
